<mxfile host="app.diagrams.net" modified="2022-06-13T10:16:04.556Z" agent="5.0 (Macintosh; Intel Mac OS X 10_16_0) AppleWebKit/537.36 (KHTML, like Gecko) Chrome/84.0.4147.135 Safari/537.36" etag="-JSSdMfGgHjXCZsCAIYK" version="19.0.0" type="github" pages="2">
  <diagram id="CK5jT10rr-_N4nWXyFcZ" name="商品凭证-泳道图">
    <mxGraphModel dx="1358" dy="732" grid="1" gridSize="10" guides="1" tooltips="1" connect="1" arrows="1" fold="1" page="1" pageScale="1" pageWidth="827" pageHeight="1169" math="0" shadow="0">
      <root>
        <mxCell id="0" />
        <mxCell id="1" parent="0" />
        <mxCell id="gmWAM6frCMXmDmfekaVd-11" value="FMS库存管理-商品凭证" style="swimlane;childLayout=stackLayout;resizeParent=1;resizeParentMax=0;startSize=20;fontSize=14;" parent="1" vertex="1">
          <mxGeometry x="130" y="80" width="750" height="1590" as="geometry">
            <mxRectangle x="130" y="80" width="60" height="20" as="alternateBounds" />
          </mxGeometry>
        </mxCell>
        <mxCell id="gmWAM6frCMXmDmfekaVd-12" value="数仓" style="swimlane;startSize=20;fontSize=14;" parent="gmWAM6frCMXmDmfekaVd-11" vertex="1">
          <mxGeometry y="20" width="150" height="1570" as="geometry" />
        </mxCell>
        <mxCell id="vjfmEweE_3btuZ8AtWeE-1" value="数据" style="strokeWidth=2;html=1;shape=mxgraph.flowchart.database;whiteSpace=wrap;fontSize=14;" vertex="1" parent="gmWAM6frCMXmDmfekaVd-12">
          <mxGeometry x="35" y="45" width="80" height="70" as="geometry" />
        </mxCell>
        <mxCell id="gmWAM6frCMXmDmfekaVd-13" value="FMS原始单据" style="swimlane;startSize=20;fontSize=14;" parent="gmWAM6frCMXmDmfekaVd-11" vertex="1">
          <mxGeometry x="150" y="20" width="150" height="1570" as="geometry" />
        </mxCell>
        <mxCell id="gmWAM6frCMXmDmfekaVd-29" value="接收数据&lt;br&gt;状态=&amp;gt;待初始化" style="rounded=0;whiteSpace=wrap;html=1;fontSize=14;" parent="gmWAM6frCMXmDmfekaVd-13" vertex="1">
          <mxGeometry x="15" y="50" width="120" height="60" as="geometry" />
        </mxCell>
        <mxCell id="gmWAM6frCMXmDmfekaVd-32" value="是否需处理" style="rhombus;whiteSpace=wrap;html=1;fontSize=14;rounded=0;" parent="gmWAM6frCMXmDmfekaVd-13" vertex="1">
          <mxGeometry x="11.25" y="170" width="127.5" height="90" as="geometry" />
        </mxCell>
        <mxCell id="gmWAM6frCMXmDmfekaVd-33" value="" style="edgeStyle=orthogonalEdgeStyle;rounded=0;orthogonalLoop=1;jettySize=auto;html=1;fontSize=14;" parent="gmWAM6frCMXmDmfekaVd-13" source="gmWAM6frCMXmDmfekaVd-29" target="gmWAM6frCMXmDmfekaVd-32" edge="1">
          <mxGeometry relative="1" as="geometry" />
        </mxCell>
        <mxCell id="gmWAM6frCMXmDmfekaVd-35" value="" style="edgeStyle=orthogonalEdgeStyle;rounded=0;orthogonalLoop=1;jettySize=auto;html=1;fontSize=14;" parent="gmWAM6frCMXmDmfekaVd-13" source="gmWAM6frCMXmDmfekaVd-32" edge="1">
          <mxGeometry relative="1" as="geometry">
            <mxPoint x="75" y="320" as="targetPoint" />
          </mxGeometry>
        </mxCell>
        <mxCell id="vjfmEweE_3btuZ8AtWeE-52" value="否" style="edgeLabel;html=1;align=center;verticalAlign=middle;resizable=0;points=[];fontSize=14;" vertex="1" connectable="0" parent="gmWAM6frCMXmDmfekaVd-35">
          <mxGeometry x="-0.0343" y="-3" relative="1" as="geometry">
            <mxPoint as="offset" />
          </mxGeometry>
        </mxCell>
        <mxCell id="vjfmEweE_3btuZ8AtWeE-6" value="状态 =&amp;gt; 无需处理" style="whiteSpace=wrap;html=1;fontSize=14;rounded=0;" vertex="1" parent="gmWAM6frCMXmDmfekaVd-13">
          <mxGeometry x="15" y="320" width="120" height="65" as="geometry" />
        </mxCell>
        <mxCell id="gmWAM6frCMXmDmfekaVd-14" value="FMS商品凭证" style="swimlane;startSize=20;fontSize=14;" parent="gmWAM6frCMXmDmfekaVd-11" vertex="1">
          <mxGeometry x="300" y="20" width="150" height="1570" as="geometry">
            <mxRectangle x="240" y="20" width="30" height="780" as="alternateBounds" />
          </mxGeometry>
        </mxCell>
        <mxCell id="gmWAM6frCMXmDmfekaVd-44" value="生成商品凭证" style="whiteSpace=wrap;html=1;fontSize=14;rounded=0;" parent="gmWAM6frCMXmDmfekaVd-14" vertex="1">
          <mxGeometry x="15" y="185" width="120" height="60" as="geometry" />
        </mxCell>
        <mxCell id="gmWAM6frCMXmDmfekaVd-36" value="初始化" style="whiteSpace=wrap;html=1;fontSize=14;rounded=0;" parent="gmWAM6frCMXmDmfekaVd-14" vertex="1">
          <mxGeometry x="15" y="470" width="120" height="60" as="geometry" />
        </mxCell>
        <mxCell id="vjfmEweE_3btuZ8AtWeE-25" value="&lt;span style=&quot;background-color: rgb(255, 255, 255);&quot;&gt;反写FMS凭证编号&lt;/span&gt;" style="whiteSpace=wrap;html=1;fontSize=14;rounded=0;" vertex="1" parent="gmWAM6frCMXmDmfekaVd-14">
          <mxGeometry x="13.12" y="910" width="120" height="60" as="geometry" />
        </mxCell>
        <mxCell id="vjfmEweE_3btuZ8AtWeE-28" value="&lt;span style=&quot;&quot;&gt;反写FMS汇总凭证编号&lt;/span&gt;" style="whiteSpace=wrap;html=1;fontSize=14;rounded=0;" vertex="1" parent="gmWAM6frCMXmDmfekaVd-14">
          <mxGeometry x="16.869999999999997" y="1150" width="120" height="60" as="geometry" />
        </mxCell>
        <mxCell id="vjfmEweE_3btuZ8AtWeE-47" value="&lt;span style=&quot;background-color: rgb(255, 255, 255);&quot;&gt;反写EBS凭证编号&lt;/span&gt;" style="whiteSpace=wrap;html=1;fontSize=14;rounded=0;" vertex="1" parent="gmWAM6frCMXmDmfekaVd-14">
          <mxGeometry x="16.869999999999997" y="1350" width="120" height="60" as="geometry" />
        </mxCell>
        <mxCell id="gmWAM6frCMXmDmfekaVd-46" value="推送会计引擎" style="whiteSpace=wrap;html=1;fontSize=14;rounded=0;" parent="gmWAM6frCMXmDmfekaVd-14" vertex="1">
          <mxGeometry x="14.99" y="770" width="120" height="60" as="geometry" />
        </mxCell>
        <mxCell id="vjfmEweE_3btuZ8AtWeE-33" style="edgeStyle=orthogonalEdgeStyle;rounded=0;orthogonalLoop=1;jettySize=auto;html=1;exitX=0.25;exitY=1;exitDx=0;exitDy=0;fontSize=14;" edge="1" parent="gmWAM6frCMXmDmfekaVd-11" source="gmWAM6frCMXmDmfekaVd-50" target="vjfmEweE_3btuZ8AtWeE-25">
          <mxGeometry relative="1" as="geometry">
            <mxPoint x="494.37" y="910" as="targetPoint" />
          </mxGeometry>
        </mxCell>
        <mxCell id="EPNivSUScdkDFhF8pKsd-1" value="x 二期" style="edgeLabel;html=1;align=center;verticalAlign=middle;resizable=0;points=[];fontSize=14;fontColor=#FF0000;" vertex="1" connectable="0" parent="vjfmEweE_3btuZ8AtWeE-33">
          <mxGeometry x="0.1043" y="2" relative="1" as="geometry">
            <mxPoint as="offset" />
          </mxGeometry>
        </mxCell>
        <mxCell id="vjfmEweE_3btuZ8AtWeE-44" style="edgeStyle=orthogonalEdgeStyle;rounded=0;orthogonalLoop=1;jettySize=auto;html=1;exitX=0.25;exitY=1;exitDx=0;exitDy=0;entryX=0.5;entryY=0;entryDx=0;entryDy=0;fontSize=14;" edge="1" parent="gmWAM6frCMXmDmfekaVd-11" source="vjfmEweE_3btuZ8AtWeE-19" target="vjfmEweE_3btuZ8AtWeE-28">
          <mxGeometry relative="1" as="geometry" />
        </mxCell>
        <mxCell id="EPNivSUScdkDFhF8pKsd-4" value="x 二期" style="edgeLabel;html=1;align=center;verticalAlign=middle;resizable=0;points=[];fontSize=14;fontColor=#FF0000;" vertex="1" connectable="0" parent="vjfmEweE_3btuZ8AtWeE-44">
          <mxGeometry x="0.0649" y="-3" relative="1" as="geometry">
            <mxPoint as="offset" />
          </mxGeometry>
        </mxCell>
        <mxCell id="vjfmEweE_3btuZ8AtWeE-46" style="edgeStyle=orthogonalEdgeStyle;rounded=0;orthogonalLoop=1;jettySize=auto;html=1;exitX=1;exitY=0.5;exitDx=0;exitDy=0;entryX=0;entryY=0.5;entryDx=0;entryDy=0;fontSize=14;" edge="1" parent="gmWAM6frCMXmDmfekaVd-11" source="vjfmEweE_3btuZ8AtWeE-30" target="gmWAM6frCMXmDmfekaVd-52">
          <mxGeometry relative="1" as="geometry" />
        </mxCell>
        <mxCell id="vjfmEweE_3btuZ8AtWeE-48" style="edgeStyle=orthogonalEdgeStyle;rounded=0;orthogonalLoop=1;jettySize=auto;html=1;exitX=0.5;exitY=1;exitDx=0;exitDy=0;entryX=0.5;entryY=0;entryDx=0;entryDy=0;fontSize=14;" edge="1" parent="gmWAM6frCMXmDmfekaVd-11" source="vjfmEweE_3btuZ8AtWeE-30" target="vjfmEweE_3btuZ8AtWeE-47">
          <mxGeometry relative="1" as="geometry" />
        </mxCell>
        <mxCell id="EPNivSUScdkDFhF8pKsd-5" value="x 二期" style="edgeLabel;html=1;align=center;verticalAlign=middle;resizable=0;points=[];fontSize=14;fontColor=#FF0000;" vertex="1" connectable="0" parent="vjfmEweE_3btuZ8AtWeE-48">
          <mxGeometry x="0.1347" y="3" relative="1" as="geometry">
            <mxPoint as="offset" />
          </mxGeometry>
        </mxCell>
        <mxCell id="gmWAM6frCMXmDmfekaVd-51" value="" style="edgeStyle=orthogonalEdgeStyle;rounded=0;orthogonalLoop=1;jettySize=auto;html=1;fontSize=14;" parent="gmWAM6frCMXmDmfekaVd-11" source="gmWAM6frCMXmDmfekaVd-46" target="gmWAM6frCMXmDmfekaVd-50" edge="1">
          <mxGeometry relative="1" as="geometry" />
        </mxCell>
        <mxCell id="gmWAM6frCMXmDmfekaVd-22" value="会计引擎" style="swimlane;startSize=20;fontSize=14;" parent="gmWAM6frCMXmDmfekaVd-11" vertex="1">
          <mxGeometry x="450" y="20" width="150" height="1570" as="geometry">
            <mxRectangle x="240" y="20" width="30" height="780" as="alternateBounds" />
          </mxGeometry>
        </mxCell>
        <mxCell id="vjfmEweE_3btuZ8AtWeE-39" style="edgeStyle=orthogonalEdgeStyle;rounded=0;orthogonalLoop=1;jettySize=auto;html=1;exitX=0.5;exitY=1;exitDx=0;exitDy=0;entryX=0.5;entryY=0;entryDx=0;entryDy=0;fontSize=14;" edge="1" parent="gmWAM6frCMXmDmfekaVd-22" source="gmWAM6frCMXmDmfekaVd-50" target="vjfmEweE_3btuZ8AtWeE-19">
          <mxGeometry relative="1" as="geometry" />
        </mxCell>
        <mxCell id="vjfmEweE_3btuZ8AtWeE-41" value="汇总" style="edgeLabel;html=1;align=center;verticalAlign=middle;resizable=0;points=[];fontSize=14;" vertex="1" connectable="0" parent="vjfmEweE_3btuZ8AtWeE-39">
          <mxGeometry x="-0.1059" y="-3" relative="1" as="geometry">
            <mxPoint as="offset" />
          </mxGeometry>
        </mxCell>
        <mxCell id="gmWAM6frCMXmDmfekaVd-50" value="生成FMS凭证" style="whiteSpace=wrap;html=1;fontSize=14;rounded=0;" parent="gmWAM6frCMXmDmfekaVd-22" vertex="1">
          <mxGeometry x="16.869999999999997" y="770" width="120" height="60" as="geometry" />
        </mxCell>
        <mxCell id="vjfmEweE_3btuZ8AtWeE-19" value="生成FMS汇总凭证" style="whiteSpace=wrap;html=1;fontSize=14;rounded=0;" vertex="1" parent="gmWAM6frCMXmDmfekaVd-22">
          <mxGeometry x="16.869999999999997" y="1000" width="120" height="60" as="geometry" />
        </mxCell>
        <mxCell id="vjfmEweE_3btuZ8AtWeE-30" value="推送EBS" style="whiteSpace=wrap;html=1;fontSize=14;rounded=0;" vertex="1" parent="gmWAM6frCMXmDmfekaVd-22">
          <mxGeometry x="16.869999999999997" y="1230" width="120" height="60" as="geometry" />
        </mxCell>
        <mxCell id="vjfmEweE_3btuZ8AtWeE-31" value="" style="edgeStyle=orthogonalEdgeStyle;rounded=0;orthogonalLoop=1;jettySize=auto;html=1;fontSize=14;" edge="1" parent="gmWAM6frCMXmDmfekaVd-22" source="vjfmEweE_3btuZ8AtWeE-19" target="vjfmEweE_3btuZ8AtWeE-30">
          <mxGeometry relative="1" as="geometry" />
        </mxCell>
        <mxCell id="gmWAM6frCMXmDmfekaVd-23" value="EBS" style="swimlane;startSize=20;fontSize=14;" parent="gmWAM6frCMXmDmfekaVd-11" vertex="1">
          <mxGeometry x="600" y="20" width="150" height="1570" as="geometry">
            <mxRectangle x="240" y="20" width="30" height="780" as="alternateBounds" />
          </mxGeometry>
        </mxCell>
        <mxCell id="gmWAM6frCMXmDmfekaVd-52" value="接收凭证" style="whiteSpace=wrap;html=1;fontSize=14;rounded=0;" parent="gmWAM6frCMXmDmfekaVd-23" vertex="1">
          <mxGeometry x="16.869999999999997" y="1230" width="120" height="60" as="geometry" />
        </mxCell>
        <mxCell id="gmWAM6frCMXmDmfekaVd-54" style="edgeStyle=orthogonalEdgeStyle;rounded=0;orthogonalLoop=1;jettySize=auto;html=1;entryX=0;entryY=0.5;entryDx=0;entryDy=0;fontSize=14;exitX=1;exitY=0.5;exitDx=0;exitDy=0;exitPerimeter=0;" parent="gmWAM6frCMXmDmfekaVd-11" source="vjfmEweE_3btuZ8AtWeE-1" target="gmWAM6frCMXmDmfekaVd-29" edge="1">
          <mxGeometry relative="1" as="geometry">
            <mxPoint x="135" y="100" as="sourcePoint" />
          </mxGeometry>
        </mxCell>
        <mxCell id="vjfmEweE_3btuZ8AtWeE-2" value="是" style="edgeStyle=orthogonalEdgeStyle;rounded=0;orthogonalLoop=1;jettySize=auto;html=1;exitX=1;exitY=0.5;exitDx=0;exitDy=0;entryX=0;entryY=0.5;entryDx=0;entryDy=0;fontSize=14;" edge="1" parent="gmWAM6frCMXmDmfekaVd-11" source="gmWAM6frCMXmDmfekaVd-32" target="gmWAM6frCMXmDmfekaVd-44">
          <mxGeometry relative="1" as="geometry" />
        </mxCell>
        <mxCell id="kJ1Ntxyy4C_Uyql5hjMA-5" style="edgeStyle=orthogonalEdgeStyle;rounded=0;orthogonalLoop=1;jettySize=auto;html=1;exitX=0.5;exitY=1;exitDx=0;exitDy=0;entryX=0.5;entryY=0;entryDx=0;entryDy=0;fontSize=14;" edge="1" parent="1" source="kJ1Ntxyy4C_Uyql5hjMA-3" target="gmWAM6frCMXmDmfekaVd-36">
          <mxGeometry relative="1" as="geometry" />
        </mxCell>
        <mxCell id="kJ1Ntxyy4C_Uyql5hjMA-3" value="&lt;meta charset=&quot;utf-8&quot;&gt;&lt;span style=&quot;color: rgb(0, 0, 0); font-family: Helvetica; font-size: 14px; font-style: normal; font-variant-ligatures: normal; font-variant-caps: normal; font-weight: 400; letter-spacing: normal; orphans: 2; text-align: center; text-indent: 0px; text-transform: none; widows: 2; word-spacing: 0px; -webkit-text-stroke-width: 0px; background-color: rgb(248, 249, 250); text-decoration-style: initial; text-decoration-color: initial; float: none; display: inline !important;&quot;&gt;初始化前置处理器&lt;/span&gt;" style="whiteSpace=wrap;html=1;fontSize=14;rounded=0;" vertex="1" parent="1">
          <mxGeometry x="445" y="425" width="120" height="60" as="geometry" />
        </mxCell>
        <mxCell id="kJ1Ntxyy4C_Uyql5hjMA-4" value="" style="edgeStyle=orthogonalEdgeStyle;rounded=0;orthogonalLoop=1;jettySize=auto;html=1;fontSize=14;" edge="1" parent="1" source="gmWAM6frCMXmDmfekaVd-44" target="kJ1Ntxyy4C_Uyql5hjMA-3">
          <mxGeometry relative="1" as="geometry" />
        </mxCell>
        <mxCell id="kJ1Ntxyy4C_Uyql5hjMA-9" style="edgeStyle=orthogonalEdgeStyle;rounded=0;orthogonalLoop=1;jettySize=auto;html=1;exitX=0.5;exitY=1;exitDx=0;exitDy=0;fontSize=14;" edge="1" parent="1" source="kJ1Ntxyy4C_Uyql5hjMA-7" target="gmWAM6frCMXmDmfekaVd-46">
          <mxGeometry relative="1" as="geometry" />
        </mxCell>
        <mxCell id="kJ1Ntxyy4C_Uyql5hjMA-7" value="&lt;span style=&quot;&quot;&gt;初始化后置处理器&lt;/span&gt;" style="whiteSpace=wrap;html=1;fontSize=14;rounded=0;" vertex="1" parent="1">
          <mxGeometry x="445" y="710" width="120" height="60" as="geometry" />
        </mxCell>
        <mxCell id="kJ1Ntxyy4C_Uyql5hjMA-8" value="" style="edgeStyle=orthogonalEdgeStyle;rounded=0;orthogonalLoop=1;jettySize=auto;html=1;fontSize=14;" edge="1" parent="1" source="gmWAM6frCMXmDmfekaVd-36" target="kJ1Ntxyy4C_Uyql5hjMA-7">
          <mxGeometry relative="1" as="geometry" />
        </mxCell>
      </root>
    </mxGraphModel>
  </diagram>
  <diagram id="AKi4vu2YI9hTVj8ECTmm" name="商品凭证-状态">
    <mxGraphModel dx="599" dy="769" grid="1" gridSize="10" guides="1" tooltips="1" connect="1" arrows="1" fold="1" page="1" pageScale="1" pageWidth="827" pageHeight="1169" math="0" shadow="0">
      <root>
        <mxCell id="0" />
        <mxCell id="1" parent="0" />
        <mxCell id="UnhSAXsRYoPxW-3TQy_8-1" value="" style="edgeStyle=orthogonalEdgeStyle;rounded=0;orthogonalLoop=1;jettySize=auto;html=1;fontSize=14;" edge="1" parent="1" source="UnhSAXsRYoPxW-3TQy_8-2" target="UnhSAXsRYoPxW-3TQy_8-9">
          <mxGeometry relative="1" as="geometry" />
        </mxCell>
        <mxCell id="UnhSAXsRYoPxW-3TQy_8-2" value="待初始化" style="rounded=1;whiteSpace=wrap;html=1;fontSize=14;strokeWidth=2;" vertex="1" parent="1">
          <mxGeometry x="1200" y="225" width="120" height="60" as="geometry" />
        </mxCell>
        <mxCell id="UnhSAXsRYoPxW-3TQy_8-3" value="" style="edgeStyle=orthogonalEdgeStyle;rounded=0;orthogonalLoop=1;jettySize=auto;html=1;fontSize=14;" edge="1" parent="1" source="UnhSAXsRYoPxW-3TQy_8-9" target="UnhSAXsRYoPxW-3TQy_8-10">
          <mxGeometry relative="1" as="geometry" />
        </mxCell>
        <mxCell id="UnhSAXsRYoPxW-3TQy_8-4" value="无需" style="edgeLabel;html=1;align=center;verticalAlign=middle;resizable=0;points=[];fontSize=14;" vertex="1" connectable="0" parent="UnhSAXsRYoPxW-3TQy_8-3">
          <mxGeometry x="0.2032" y="3" relative="1" as="geometry">
            <mxPoint x="16" y="-3" as="offset" />
          </mxGeometry>
        </mxCell>
        <mxCell id="UnhSAXsRYoPxW-3TQy_8-5" value="" style="edgeStyle=orthogonalEdgeStyle;rounded=0;orthogonalLoop=1;jettySize=auto;html=1;fontSize=14;" edge="1" parent="1" source="UnhSAXsRYoPxW-3TQy_8-9" target="UnhSAXsRYoPxW-3TQy_8-13">
          <mxGeometry relative="1" as="geometry" />
        </mxCell>
        <mxCell id="UnhSAXsRYoPxW-3TQy_8-6" value="是，初始化成功" style="edgeLabel;html=1;align=center;verticalAlign=middle;resizable=0;points=[];fontSize=14;" vertex="1" connectable="0" parent="UnhSAXsRYoPxW-3TQy_8-5">
          <mxGeometry x="-0.2243" relative="1" as="geometry">
            <mxPoint as="offset" />
          </mxGeometry>
        </mxCell>
        <mxCell id="UnhSAXsRYoPxW-3TQy_8-7" style="edgeStyle=orthogonalEdgeStyle;rounded=0;orthogonalLoop=1;jettySize=auto;html=1;exitX=1;exitY=0.5;exitDx=0;exitDy=0;entryX=1;entryY=0.5;entryDx=0;entryDy=0;fontSize=14;" edge="1" parent="1" source="UnhSAXsRYoPxW-3TQy_8-9" target="UnhSAXsRYoPxW-3TQy_8-2">
          <mxGeometry relative="1" as="geometry">
            <Array as="points">
              <mxPoint x="1360" y="395" />
              <mxPoint x="1360" y="255" />
            </Array>
          </mxGeometry>
        </mxCell>
        <mxCell id="UnhSAXsRYoPxW-3TQy_8-8" value="是，初始化失败" style="edgeLabel;html=1;align=center;verticalAlign=middle;resizable=0;points=[];fontSize=14;" vertex="1" connectable="0" parent="UnhSAXsRYoPxW-3TQy_8-7">
          <mxGeometry x="-0.1794" y="-2" relative="1" as="geometry">
            <mxPoint as="offset" />
          </mxGeometry>
        </mxCell>
        <mxCell id="UnhSAXsRYoPxW-3TQy_8-9" value="初始化判定" style="rhombus;whiteSpace=wrap;html=1;fontSize=14;rounded=1;strokeWidth=2;" vertex="1" parent="1">
          <mxGeometry x="1220" y="355" width="80" height="80" as="geometry" />
        </mxCell>
        <mxCell id="UnhSAXsRYoPxW-3TQy_8-10" value="无需处理" style="whiteSpace=wrap;html=1;fontSize=14;rounded=1;strokeWidth=2;" vertex="1" parent="1">
          <mxGeometry x="1040" y="365" width="120" height="60" as="geometry" />
        </mxCell>
        <mxCell id="UnhSAXsRYoPxW-3TQy_8-11" value="" style="edgeStyle=orthogonalEdgeStyle;rounded=0;orthogonalLoop=1;jettySize=auto;html=1;fontSize=14;" edge="1" parent="1" source="UnhSAXsRYoPxW-3TQy_8-13" target="UnhSAXsRYoPxW-3TQy_8-15">
          <mxGeometry relative="1" as="geometry" />
        </mxCell>
        <mxCell id="UnhSAXsRYoPxW-3TQy_8-12" value="推送" style="edgeLabel;html=1;align=center;verticalAlign=middle;resizable=0;points=[];fontSize=14;" vertex="1" connectable="0" parent="UnhSAXsRYoPxW-3TQy_8-11">
          <mxGeometry x="0.2417" relative="1" as="geometry">
            <mxPoint as="offset" />
          </mxGeometry>
        </mxCell>
        <mxCell id="UnhSAXsRYoPxW-3TQy_8-13" value="已初始化" style="whiteSpace=wrap;html=1;fontSize=14;rounded=1;strokeWidth=2;" vertex="1" parent="1">
          <mxGeometry x="1200" y="525" width="120" height="60" as="geometry" />
        </mxCell>
        <mxCell id="UnhSAXsRYoPxW-3TQy_8-14" value="" style="edgeStyle=orthogonalEdgeStyle;rounded=0;orthogonalLoop=1;jettySize=auto;html=1;fontSize=14;" edge="1" parent="1" source="UnhSAXsRYoPxW-3TQy_8-15" target="UnhSAXsRYoPxW-3TQy_8-18">
          <mxGeometry relative="1" as="geometry" />
        </mxCell>
        <mxCell id="UnhSAXsRYoPxW-3TQy_8-15" value="已推送" style="whiteSpace=wrap;html=1;fontSize=14;rounded=1;strokeWidth=2;" vertex="1" parent="1">
          <mxGeometry x="1200" y="665" width="120" height="60" as="geometry" />
        </mxCell>
        <mxCell id="UnhSAXsRYoPxW-3TQy_8-16" style="edgeStyle=orthogonalEdgeStyle;rounded=0;orthogonalLoop=1;jettySize=auto;html=1;exitX=0.5;exitY=1;exitDx=0;exitDy=0;exitPerimeter=0;entryX=0.5;entryY=0;entryDx=0;entryDy=0;fontSize=14;" edge="1" parent="1" source="UnhSAXsRYoPxW-3TQy_8-17" target="UnhSAXsRYoPxW-3TQy_8-2">
          <mxGeometry relative="1" as="geometry" />
        </mxCell>
        <mxCell id="UnhSAXsRYoPxW-3TQy_8-17" value="FMS原始单据&lt;br&gt;状态" style="strokeWidth=2;html=1;shape=mxgraph.flowchart.start_1;whiteSpace=wrap;fontSize=14;" vertex="1" parent="1">
          <mxGeometry x="1200" y="100" width="120" height="60" as="geometry" />
        </mxCell>
        <mxCell id="UnhSAXsRYoPxW-3TQy_8-18" value="结束" style="ellipse;whiteSpace=wrap;html=1;fontSize=14;rounded=1;strokeWidth=2;" vertex="1" parent="1">
          <mxGeometry x="1200" y="790" width="120" height="60" as="geometry" />
        </mxCell>
        <mxCell id="UnhSAXsRYoPxW-3TQy_8-19" value="" style="edgeStyle=orthogonalEdgeStyle;rounded=0;orthogonalLoop=1;jettySize=auto;html=1;fontSize=14;" edge="1" parent="1" source="UnhSAXsRYoPxW-3TQy_8-20">
          <mxGeometry relative="1" as="geometry">
            <mxPoint x="1260" y="1070" as="targetPoint" />
          </mxGeometry>
        </mxCell>
        <mxCell id="UnhSAXsRYoPxW-3TQy_8-20" value="商品凭证状态" style="ellipse;whiteSpace=wrap;html=1;fontSize=14;rounded=1;strokeWidth=2;" vertex="1" parent="1">
          <mxGeometry x="1200" y="930" width="120" height="60" as="geometry" />
        </mxCell>
        <mxCell id="UnhSAXsRYoPxW-3TQy_8-21" value="" style="edgeStyle=orthogonalEdgeStyle;rounded=0;orthogonalLoop=1;jettySize=auto;html=1;fontSize=14;" edge="1" parent="1" source="UnhSAXsRYoPxW-3TQy_8-22" target="UnhSAXsRYoPxW-3TQy_8-29">
          <mxGeometry relative="1" as="geometry" />
        </mxCell>
        <mxCell id="UnhSAXsRYoPxW-3TQy_8-22" value="待初始化" style="rounded=1;whiteSpace=wrap;html=1;fontSize=14;strokeWidth=2;" vertex="1" parent="1">
          <mxGeometry x="1200" y="1070" width="120" height="60" as="geometry" />
        </mxCell>
        <mxCell id="UnhSAXsRYoPxW-3TQy_8-23" value="" style="edgeStyle=orthogonalEdgeStyle;rounded=0;orthogonalLoop=1;jettySize=auto;html=1;fontSize=14;" edge="1" parent="1" source="UnhSAXsRYoPxW-3TQy_8-29" target="UnhSAXsRYoPxW-3TQy_8-30">
          <mxGeometry relative="1" as="geometry" />
        </mxCell>
        <mxCell id="UnhSAXsRYoPxW-3TQy_8-24" value="无需" style="edgeLabel;html=1;align=center;verticalAlign=middle;resizable=0;points=[];fontSize=14;" vertex="1" connectable="0" parent="UnhSAXsRYoPxW-3TQy_8-23">
          <mxGeometry x="0.2032" y="3" relative="1" as="geometry">
            <mxPoint x="16" y="-3" as="offset" />
          </mxGeometry>
        </mxCell>
        <mxCell id="UnhSAXsRYoPxW-3TQy_8-25" value="" style="edgeStyle=orthogonalEdgeStyle;rounded=0;orthogonalLoop=1;jettySize=auto;html=1;fontSize=14;" edge="1" parent="1" source="UnhSAXsRYoPxW-3TQy_8-29" target="UnhSAXsRYoPxW-3TQy_8-32">
          <mxGeometry relative="1" as="geometry" />
        </mxCell>
        <mxCell id="UnhSAXsRYoPxW-3TQy_8-26" value="是，初始化成功" style="edgeLabel;html=1;align=center;verticalAlign=middle;resizable=0;points=[];fontSize=14;" vertex="1" connectable="0" parent="UnhSAXsRYoPxW-3TQy_8-25">
          <mxGeometry x="-0.2243" relative="1" as="geometry">
            <mxPoint as="offset" />
          </mxGeometry>
        </mxCell>
        <mxCell id="UnhSAXsRYoPxW-3TQy_8-27" style="edgeStyle=orthogonalEdgeStyle;rounded=0;orthogonalLoop=1;jettySize=auto;html=1;exitX=1;exitY=0.5;exitDx=0;exitDy=0;entryX=1;entryY=0.5;entryDx=0;entryDy=0;fontSize=14;" edge="1" parent="1" source="UnhSAXsRYoPxW-3TQy_8-29" target="UnhSAXsRYoPxW-3TQy_8-22">
          <mxGeometry relative="1" as="geometry">
            <Array as="points">
              <mxPoint x="1360" y="1240" />
              <mxPoint x="1360" y="1100" />
            </Array>
          </mxGeometry>
        </mxCell>
        <mxCell id="UnhSAXsRYoPxW-3TQy_8-28" value="是，初始化失败" style="edgeLabel;html=1;align=center;verticalAlign=middle;resizable=0;points=[];fontSize=14;" vertex="1" connectable="0" parent="UnhSAXsRYoPxW-3TQy_8-27">
          <mxGeometry x="-0.1794" y="-2" relative="1" as="geometry">
            <mxPoint as="offset" />
          </mxGeometry>
        </mxCell>
        <mxCell id="UnhSAXsRYoPxW-3TQy_8-29" value="初始化判定" style="rhombus;whiteSpace=wrap;html=1;fontSize=14;rounded=1;strokeWidth=2;" vertex="1" parent="1">
          <mxGeometry x="1220" y="1200" width="80" height="80" as="geometry" />
        </mxCell>
        <mxCell id="UnhSAXsRYoPxW-3TQy_8-30" value="无需处理" style="whiteSpace=wrap;html=1;fontSize=14;rounded=1;strokeWidth=2;" vertex="1" parent="1">
          <mxGeometry x="1040" y="1210" width="120" height="60" as="geometry" />
        </mxCell>
        <mxCell id="UnhSAXsRYoPxW-3TQy_8-31" style="edgeStyle=orthogonalEdgeStyle;rounded=0;orthogonalLoop=1;jettySize=auto;html=1;exitX=0.5;exitY=1;exitDx=0;exitDy=0;entryX=0.5;entryY=0;entryDx=0;entryDy=0;fontSize=14;" edge="1" parent="1" source="UnhSAXsRYoPxW-3TQy_8-32" target="UnhSAXsRYoPxW-3TQy_8-39">
          <mxGeometry relative="1" as="geometry" />
        </mxCell>
        <mxCell id="UnhSAXsRYoPxW-3TQy_8-32" value="已初始化" style="whiteSpace=wrap;html=1;fontSize=14;rounded=1;strokeWidth=2;" vertex="1" parent="1">
          <mxGeometry x="1200" y="1370" width="120" height="60" as="geometry" />
        </mxCell>
        <mxCell id="UnhSAXsRYoPxW-3TQy_8-33" style="edgeStyle=orthogonalEdgeStyle;rounded=0;orthogonalLoop=1;jettySize=auto;html=1;exitX=0;exitY=0.5;exitDx=0;exitDy=0;entryX=0.5;entryY=1;entryDx=0;entryDy=0;fontSize=14;" edge="1" parent="1" source="UnhSAXsRYoPxW-3TQy_8-39" target="UnhSAXsRYoPxW-3TQy_8-30">
          <mxGeometry relative="1" as="geometry" />
        </mxCell>
        <mxCell id="UnhSAXsRYoPxW-3TQy_8-34" value="无需" style="edgeLabel;html=1;align=center;verticalAlign=middle;resizable=0;points=[];fontSize=14;" vertex="1" connectable="0" parent="UnhSAXsRYoPxW-3TQy_8-33">
          <mxGeometry x="0.0164" y="-2" relative="1" as="geometry">
            <mxPoint as="offset" />
          </mxGeometry>
        </mxCell>
        <mxCell id="UnhSAXsRYoPxW-3TQy_8-35" value="" style="edgeStyle=orthogonalEdgeStyle;rounded=0;orthogonalLoop=1;jettySize=auto;html=1;fontSize=14;" edge="1" parent="1" source="UnhSAXsRYoPxW-3TQy_8-39" target="UnhSAXsRYoPxW-3TQy_8-41">
          <mxGeometry relative="1" as="geometry" />
        </mxCell>
        <mxCell id="UnhSAXsRYoPxW-3TQy_8-36" value="是，初始化成功" style="edgeLabel;html=1;align=center;verticalAlign=middle;resizable=0;points=[];fontSize=14;" vertex="1" connectable="0" parent="UnhSAXsRYoPxW-3TQy_8-35">
          <mxGeometry x="-0.2402" y="2" relative="1" as="geometry">
            <mxPoint as="offset" />
          </mxGeometry>
        </mxCell>
        <mxCell id="UnhSAXsRYoPxW-3TQy_8-37" style="edgeStyle=orthogonalEdgeStyle;rounded=0;orthogonalLoop=1;jettySize=auto;html=1;exitX=1;exitY=0.5;exitDx=0;exitDy=0;entryX=1;entryY=0.5;entryDx=0;entryDy=0;fontSize=14;" edge="1" parent="1" source="UnhSAXsRYoPxW-3TQy_8-39" target="UnhSAXsRYoPxW-3TQy_8-32">
          <mxGeometry relative="1" as="geometry">
            <Array as="points">
              <mxPoint x="1370" y="1510" />
              <mxPoint x="1370" y="1400" />
            </Array>
          </mxGeometry>
        </mxCell>
        <mxCell id="UnhSAXsRYoPxW-3TQy_8-38" value="是，初始化失败" style="edgeLabel;html=1;align=center;verticalAlign=middle;resizable=0;points=[];fontSize=14;" vertex="1" connectable="0" parent="UnhSAXsRYoPxW-3TQy_8-37">
          <mxGeometry x="0.2472" y="-2" relative="1" as="geometry">
            <mxPoint as="offset" />
          </mxGeometry>
        </mxCell>
        <mxCell id="UnhSAXsRYoPxW-3TQy_8-39" value="再次判定" style="rhombus;whiteSpace=wrap;html=1;fontSize=14;rounded=1;strokeWidth=2;" vertex="1" parent="1">
          <mxGeometry x="1220" y="1470" width="80" height="80" as="geometry" />
        </mxCell>
        <mxCell id="UnhSAXsRYoPxW-3TQy_8-40" value="" style="edgeStyle=orthogonalEdgeStyle;rounded=0;orthogonalLoop=1;jettySize=auto;html=1;fontSize=14;" edge="1" parent="1" source="UnhSAXsRYoPxW-3TQy_8-41" target="UnhSAXsRYoPxW-3TQy_8-43">
          <mxGeometry relative="1" as="geometry" />
        </mxCell>
        <mxCell id="UnhSAXsRYoPxW-3TQy_8-41" value="已初始化" style="whiteSpace=wrap;html=1;fontSize=14;rounded=1;strokeWidth=2;" vertex="1" parent="1">
          <mxGeometry x="1200" y="1640" width="120" height="60" as="geometry" />
        </mxCell>
        <mxCell id="UnhSAXsRYoPxW-3TQy_8-42" value="" style="edgeStyle=orthogonalEdgeStyle;rounded=0;orthogonalLoop=1;jettySize=auto;html=1;fontSize=14;" edge="1" parent="1" source="UnhSAXsRYoPxW-3TQy_8-43" target="UnhSAXsRYoPxW-3TQy_8-45">
          <mxGeometry relative="1" as="geometry" />
        </mxCell>
        <mxCell id="UnhSAXsRYoPxW-3TQy_8-43" value="已生成FMS凭证" style="whiteSpace=wrap;html=1;fontSize=14;rounded=1;strokeWidth=2;" vertex="1" parent="1">
          <mxGeometry x="1200" y="1780" width="120" height="60" as="geometry" />
        </mxCell>
        <mxCell id="UnhSAXsRYoPxW-3TQy_8-44" value="" style="edgeStyle=orthogonalEdgeStyle;rounded=0;orthogonalLoop=1;jettySize=auto;html=1;fontSize=14;" edge="1" parent="1" source="UnhSAXsRYoPxW-3TQy_8-45" target="UnhSAXsRYoPxW-3TQy_8-47">
          <mxGeometry relative="1" as="geometry" />
        </mxCell>
        <mxCell id="UnhSAXsRYoPxW-3TQy_8-45" value="已生成FMS汇总凭证" style="whiteSpace=wrap;html=1;fontSize=14;rounded=1;strokeWidth=2;" vertex="1" parent="1">
          <mxGeometry x="1200" y="1920" width="120" height="60" as="geometry" />
        </mxCell>
        <mxCell id="UnhSAXsRYoPxW-3TQy_8-46" value="" style="edgeStyle=orthogonalEdgeStyle;rounded=0;orthogonalLoop=1;jettySize=auto;html=1;fontSize=14;" edge="1" parent="1" source="UnhSAXsRYoPxW-3TQy_8-47" target="UnhSAXsRYoPxW-3TQy_8-48">
          <mxGeometry relative="1" as="geometry" />
        </mxCell>
        <mxCell id="UnhSAXsRYoPxW-3TQy_8-47" value="已生成EBS凭证" style="whiteSpace=wrap;html=1;fontSize=14;rounded=1;strokeWidth=2;" vertex="1" parent="1">
          <mxGeometry x="1200" y="2060" width="120" height="60" as="geometry" />
        </mxCell>
        <mxCell id="UnhSAXsRYoPxW-3TQy_8-48" value="结束" style="ellipse;whiteSpace=wrap;html=1;fontSize=14;rounded=1;strokeWidth=2;" vertex="1" parent="1">
          <mxGeometry x="1200" y="2200" width="120" height="60" as="geometry" />
        </mxCell>
      </root>
    </mxGraphModel>
  </diagram>
</mxfile>
